<svg width="120" height="32" viewBox="0 0 120 32" fill="none" xmlns="http://www.w3.org/2000/svg">
<g clip-path="url(#clip0_335_6568)">
<path d="M17.8243 4.54419C19.2878 6.00766 19.2878 8.38046 17.8243 9.84393L7.01647 20.6423C5.55301 22.1058 3.1802 22.1058 1.71674 20.6423C0.253274 19.1789 0.253274 16.806 1.71674 15.3426L12.5246 4.54419C13.988 3.08073 16.3609 3.08073 17.8243 4.54419Z" fill="url(#paint0_linear_335_6568)"/>
<path d="M16.1482 14.0734C19.1746 14.0734 21.6279 11.62 21.6279 8.59366C21.6279 5.5673 19.1746 3.11395 16.1482 3.11395C13.1218 3.11395 10.6685 5.5673 10.6685 8.59366C10.6685 11.62 13.1218 14.0734 16.1482 14.0734Z" fill="url(#paint1_linear_335_6568)"/>
<path d="M14.4838 27.0081C13.0204 25.5447 13.0204 23.1719 14.4838 21.7084L25.2917 10.91C26.7552 9.44657 29.1279 9.44657 30.5914 10.91C32.0549 12.3735 32.0549 14.7463 30.5914 16.2098L19.7836 27.0081C18.3201 28.4716 15.9473 28.4716 14.4838 27.0081Z" fill="url(#paint2_linear_335_6568)"/>
<path d="M16.1482 28.4333C19.1746 28.4333 21.6279 25.98 21.6279 22.9536C21.6279 19.9273 19.1746 17.4739 16.1482 17.4739C13.1218 17.4739 10.6685 19.9273 10.6685 22.9536C10.6685 25.98 13.1218 28.4333 16.1482 28.4333Z" fill="url(#paint3_linear_335_6568)"/>
<path d="M41.8805 23.4083H50.5761V25.942H39.2046V5.7851H41.8805V23.4083Z" fill="white"/>
<path d="M62.0674 11.5444H64.5727V25.9422H62.0674V23.8678C61.0585 25.5065 59.5051 26.3164 57.4022 26.3164C54.0349 26.3164 51.8184 24.043 51.8184 20.3867V11.5491H54.3237V20.2446C54.3237 22.5748 55.6783 23.9293 57.8948 23.9293C60.4002 23.9293 62.0721 22.4043 62.0721 19.1791V11.5491L62.0674 11.5444Z" fill="white"/>
<path d="M80.1468 25.9425H77.2109L73.1803 20.5007L69.1214 25.9425H66.1851L71.7123 18.5446L66.5024 11.5494H69.4672L73.1803 16.5602L76.8932 11.5494H79.8298L74.6482 18.5162L80.1468 25.9472V25.9425Z" fill="white"/>
<path d="M87.5166 26.3168C85.4139 26.3168 83.6002 25.5969 82.1316 24.1287C80.6636 22.6605 79.9434 20.875 79.9434 18.7437C79.9434 16.6124 80.6636 14.8269 82.1316 13.3587C83.6002 11.8905 85.4139 11.1707 87.5166 11.1707C89.6193 11.1707 91.4337 11.8905 92.9016 13.3587C94.3696 14.8269 95.1179 16.6124 95.1179 18.7437C95.1179 20.875 94.3696 22.6605 92.9016 24.1287C91.4337 25.5969 89.6193 26.3168 87.5166 26.3168ZM91.1447 22.4C92.1252 21.4197 92.6127 20.2119 92.6127 18.7437C92.6127 17.2755 92.1252 16.0678 91.1447 15.0874C90.1642 14.107 88.9565 13.6192 87.5166 13.6192C86.0767 13.6192 84.8977 14.107 83.9172 15.0874C82.9368 16.0678 82.4493 17.2755 82.4493 18.7437C82.4493 20.2119 82.9368 21.4197 83.9172 22.4C84.8977 23.3804 86.1055 23.8682 87.5166 23.8682C88.9277 23.8682 90.1642 23.3804 91.1447 22.4Z" fill="white"/>
<path d="M97.3735 25.9424V4.92346H99.8788V25.9424H97.3735Z" fill="white"/>
<path d="M102.551 7.25386C102.551 6.33031 103.3 5.55359 104.251 5.55359C105.203 5.55359 105.923 6.33031 105.923 7.25386C105.923 8.17741 105.175 8.92571 104.251 8.92571C103.328 8.92571 102.551 8.17741 102.551 7.25386ZM102.982 25.9426V11.5448H105.487V25.9426H102.982Z" fill="white"/>
<path d="M113.58 17.5927C115.825 18.0806 118.819 18.9188 118.79 21.9973C118.79 23.295 118.269 24.3559 117.265 25.1374C116.257 25.9141 114.992 26.3167 113.405 26.3167C110.611 26.3167 108.508 24.9906 107.674 22.9493L109.834 21.7132C110.294 23.0961 111.648 23.9581 113.405 23.9581C115.049 23.9581 116.257 23.3518 116.257 22.0021C116.257 20.8796 114.987 20.245 113.405 19.8708C111.132 19.2646 108.195 18.5163 108.195 15.4662C108.195 14.2301 108.684 13.1928 109.635 12.383C110.616 11.5778 111.824 11.1752 113.291 11.1752C115.626 11.1752 117.554 12.2978 118.473 14.1685L116.37 15.3478C115.854 14.1117 114.817 13.5054 113.287 13.5054C111.875 13.5054 110.725 14.1969 110.725 15.433C110.725 16.5555 111.994 17.1617 113.576 17.5927H113.58Z" fill="white"/>
</g>
<defs>
<linearGradient id="paint0_linear_335_6568" x1="17.8299" y1="4.55596" x2="1.71636" y2="20.6526" gradientUnits="userSpaceOnUse">
<stop stop-color="#CA27CA"/>
<stop offset="0.44" stop-color="#FF3C83" stop-opacity="0.5"/>
<stop offset="1" stop-color="#FF882A" stop-opacity="0"/>
</linearGradient>
<linearGradient id="paint1_linear_335_6568" x1="20.03" y1="4.73618" x2="10.5308" y2="14.2322" gradientUnits="userSpaceOnUse">
<stop stop-color="#FF882A"/>
<stop offset="0.5" stop-color="#FF3C83"/>
<stop offset="1" stop-color="#CA27CA"/>
</linearGradient>
<linearGradient id="paint2_linear_335_6568" x1="14.4544" y1="27.0269" x2="30.5679" y2="10.9303" gradientUnits="userSpaceOnUse">
<stop stop-color="#CA27CA"/>
<stop offset="0.44" stop-color="#FF3C83" stop-opacity="0.5"/>
<stop offset="1" stop-color="#FF882A" stop-opacity="0"/>
</linearGradient>
<linearGradient id="paint3_linear_335_6568" x1="12.2426" y1="26.8486" x2="21.7385" y2="17.3492" gradientUnits="userSpaceOnUse">
<stop stop-color="#FF882A"/>
<stop offset="0.5" stop-color="#FF3C83"/>
<stop offset="1" stop-color="#CA27CA"/>
</linearGradient>
<clipPath id="clip0_335_6568">
<rect width="119.231" height="25.9502" fill="white" transform="translate(0 3.0249)"/>
</clipPath>
</defs>
</svg>
